<svg width="274" height="92" viewBox="0 0 274 92" fill="none" xmlns="http://www.w3.org/2000/svg">
<mask id="mask0_36_59" style="mask-type:alpha" maskUnits="userSpaceOnUse" x="0" y="0" width="92" height="92">
<circle cx="46" cy="46" r="46" fill="#D9D9D9"/>
</mask>
<g mask="url(#mask0_36_59)">
<circle cx="46" cy="37" r="37" fill="#FF9500"/>
<path d="M48.9316 15.2432L61.9316 33.2432L62.2012 33.6162L62.3457 34.0518L66.9316 47.8096L69.6221 49.0322L74.2002 45.5996L76.2529 44.0605L78.0918 45.8496L114.592 81.3496L118.335 84.9902L113.304 86.3906L46.8037 104.891L45.9824 105.119L45.1631 104.881L-16.8369 86.8809L-22.6504 85.1934L-17.7861 81.5889L8.62402 62.0254L16.8018 45.1895L17.1191 44.5361L17.7002 44.0996L27.1328 37.0244L34.3164 22.6582L35.792 19.707L38.5898 21.4561L39.958 22.3105L43.9033 15.4971L46.2227 11.4922L48.9316 15.2432Z" fill="#5170A7" stroke="#FFFAEE" stroke-width="6"/>
<path d="M41 68L36 62.5V47.5L42 43L44 32L48 29L56 45.5L53.5 53L62.5 57L68 68L72 59L76 56L86.5 74.5L93 70L104.5 87L115.5 95L98 93L90.5 84L86.5 88.5L80.5 82.5L79 88.5L51 64V70L61.5 81L53.5 80.5L63.5 95L36 97L47 77L38 81L32 68H41Z" fill="#FFFAEE"/>
</g>
<path d="M103.344 67V64.456H105.312C105.792 64.456 106.208 64.392 106.56 64.264C106.944 64.104 107.248 63.8 107.472 63.352C107.696 62.904 107.808 62.232 107.808 61.336V38.344C107.808 37.48 107.696 36.84 107.472 36.424C107.248 35.976 106.944 35.672 106.56 35.512C106.176 35.352 105.76 35.272 105.312 35.272H103.344V32.728H117.36C121.936 32.728 125.36 33.432 127.632 34.84C129.936 36.248 131.088 38.456 131.088 41.464C131.088 42.872 130.832 44.056 130.32 45.016C129.808 45.944 129.104 46.712 128.208 47.32C127.312 47.896 126.256 48.376 125.04 48.76V49C126.512 49.352 127.808 49.912 128.928 50.68C130.048 51.448 130.928 52.408 131.568 53.56C132.208 54.68 132.528 56.024 132.528 57.592C132.528 60.728 131.376 63.08 129.072 64.648C126.768 66.216 123.344 67 118.8 67H103.344ZM118.56 64.072C120.704 64.072 122.224 63.576 123.12 62.584C124.016 61.592 124.464 59.88 124.464 57.448C124.464 55.88 124.288 54.584 123.936 53.56C123.584 52.536 122.976 51.784 122.112 51.304C121.28 50.792 120.128 50.536 118.656 50.536H115.392V64.072H118.56ZM117.216 47.608C118.72 47.608 119.888 47.4 120.72 46.984C121.552 46.568 122.144 45.912 122.496 45.016C122.848 44.088 123.024 42.904 123.024 41.464C123.024 39.288 122.576 37.784 121.68 36.952C120.816 36.088 119.296 35.656 117.12 35.656H115.392V47.608H117.216ZM148.938 67.48C144.874 67.48 141.786 66.328 139.674 64.024C137.562 61.688 136.506 58.44 136.506 54.28C136.506 49.768 137.546 46.376 139.626 44.104C141.706 41.8 144.634 40.648 148.41 40.648C151.898 40.648 154.634 41.624 156.618 43.576C158.634 45.528 159.642 48.408 159.642 52.216V54.664H143.898C143.962 56.808 144.25 58.568 144.762 59.944C145.274 61.288 145.994 62.28 146.922 62.92C147.882 63.56 149.018 63.88 150.33 63.88C151.45 63.88 152.442 63.72 153.306 63.4C154.202 63.048 154.97 62.584 155.61 62.008C156.25 61.4 156.746 60.728 157.098 59.992C157.546 60.216 157.866 60.536 158.058 60.952C158.282 61.336 158.394 61.8 158.394 62.344C158.394 63.24 158.058 64.088 157.386 64.888C156.714 65.656 155.674 66.28 154.266 66.76C152.89 67.24 151.114 67.48 148.938 67.48ZM152.298 51.592C152.298 49.96 152.17 48.568 151.914 47.416C151.658 46.232 151.258 45.336 150.714 44.728C150.17 44.088 149.434 43.768 148.506 43.768C147.61 43.768 146.826 44.072 146.154 44.68C145.514 45.256 145.002 46.136 144.618 47.32C144.266 48.472 144.058 49.896 143.994 51.592H152.298ZM162.488 67V64.456H163.064C163.544 64.456 164.04 64.392 164.552 64.264C165.096 64.104 165.544 63.8 165.896 63.352C166.28 62.904 166.472 62.232 166.472 61.336V35.992C166.472 35.128 166.28 34.488 165.896 34.072C165.512 33.656 165.048 33.384 164.504 33.256C163.992 33.128 163.512 33.064 163.064 33.064H162.488V30.52H173.768V49.048C173.768 49.464 173.752 49.96 173.72 50.536C173.688 51.112 173.656 51.672 173.624 52.216C173.624 52.728 173.608 53.16 173.576 53.512C173.544 53.864 173.528 54.04 173.528 54.04L179.576 47.272C179.928 46.856 180.2 46.52 180.392 46.264C180.584 45.976 180.712 45.736 180.776 45.544C180.84 45.32 180.872 45.128 180.872 44.968C180.872 44.552 180.648 44.232 180.2 44.008C179.784 43.784 179.176 43.672 178.376 43.672V41.272H190.472V43.672C189.928 43.672 189.384 43.752 188.84 43.912C188.296 44.072 187.752 44.328 187.208 44.68C186.664 45 186.104 45.416 185.528 45.928C184.952 46.44 184.344 47.048 183.704 47.752L180.68 51.208L187.064 60.712C187.64 61.544 188.2 62.248 188.744 62.824C189.32 63.368 189.88 63.784 190.424 64.072C191 64.328 191.544 64.456 192.056 64.456H192.2V67H191.528C189.768 67 188.28 66.968 187.064 66.904C185.88 66.808 184.872 66.632 184.04 66.376C183.208 66.088 182.472 65.656 181.832 65.08C181.224 64.504 180.6 63.72 179.96 62.728L175.688 56.008L173.768 57.448V61.336C173.768 62.232 173.944 62.904 174.296 63.352C174.68 63.8 175.144 64.104 175.688 64.264C176.232 64.392 176.728 64.456 177.176 64.456H177.752V67H162.488ZM193.004 67V64.456H193.58C194.06 64.456 194.556 64.392 195.068 64.264C195.612 64.104 196.06 63.8 196.412 63.352C196.796 62.904 196.988 62.232 196.988 61.336V35.992C196.988 35.128 196.796 34.488 196.412 34.072C196.028 33.656 195.564 33.384 195.02 33.256C194.508 33.128 194.028 33.064 193.58 33.064H193.004V30.52H204.284V61.336C204.284 62.232 204.46 62.904 204.812 63.352C205.196 63.8 205.66 64.104 206.204 64.264C206.748 64.392 207.244 64.456 207.692 64.456H208.268V67H193.004ZM209.879 67V64.456H210.455C210.935 64.456 211.431 64.392 211.943 64.264C212.487 64.104 212.935 63.8 213.287 63.352C213.671 62.904 213.863 62.232 213.863 61.336V46.744C213.863 45.88 213.671 45.24 213.287 44.824C212.903 44.408 212.439 44.136 211.895 44.008C211.383 43.88 210.903 43.816 210.455 43.816H209.879V41.272H221.159V61.336C221.159 62.232 221.335 62.904 221.687 63.352C222.071 63.8 222.535 64.104 223.079 64.264C223.623 64.392 224.119 64.456 224.567 64.456H225.143V67H209.879ZM217.271 36.952C216.119 36.952 215.143 36.68 214.343 36.136C213.575 35.56 213.191 34.68 213.191 33.496C213.191 32.28 213.591 31.4 214.391 30.856C215.191 30.312 216.167 30.04 217.319 30.04C218.407 30.04 219.351 30.312 220.151 30.856C220.983 31.4 221.398 32.28 221.398 33.496C221.398 34.68 220.983 35.56 220.151 36.136C219.351 36.68 218.391 36.952 217.271 36.952ZM226.898 67V64.456H226.994C227.73 64.456 228.37 64.376 228.914 64.216C229.49 64.056 229.938 63.752 230.258 63.304C230.578 62.824 230.738 62.104 230.738 61.144V46.792C230.738 45.896 230.594 45.224 230.306 44.776C230.018 44.328 229.618 44.04 229.105 43.912C228.594 43.752 227.986 43.672 227.282 43.672H227.138V41.272H237.218L237.842 44.68H238.082C238.722 43.464 239.41 42.584 240.146 42.04C240.914 41.464 241.73 41.096 242.594 40.936C243.49 40.744 244.434 40.648 245.426 40.648C246.61 40.648 247.666 40.792 248.594 41.08C249.554 41.336 250.37 41.768 251.042 42.376C251.746 42.952 252.29 43.72 252.674 44.68H253.106C253.746 43.464 254.466 42.584 255.266 42.04C256.066 41.464 256.93 41.096 257.858 40.936C258.786 40.744 259.746 40.648 260.738 40.648C263.202 40.648 265.138 41.384 266.546 42.856C267.954 44.328 268.658 46.68 268.658 49.912V61.048C268.658 62.04 268.77 62.776 268.994 63.256C269.25 63.736 269.618 64.056 270.098 64.216C270.578 64.376 271.17 64.456 271.874 64.456H272.018V67H261.362V51.208C261.362 49.128 261.074 47.528 260.498 46.408C259.922 45.288 258.93 44.728 257.522 44.728C256.53 44.728 255.714 45.048 255.074 45.688C254.466 46.296 254.018 47.128 253.73 48.184C253.474 49.208 253.346 50.344 253.346 51.592V61.048C253.346 62.008 253.458 62.744 253.682 63.256C253.938 63.736 254.306 64.056 254.786 64.216C255.266 64.376 255.858 64.456 256.562 64.456H256.706V67H246.05V51.208C246.05 49.128 245.762 47.528 245.186 46.408C244.61 45.288 243.618 44.728 242.21 44.728C241.154 44.728 240.322 45.08 239.714 45.784C239.106 46.456 238.674 47.368 238.418 48.52C238.162 49.64 238.034 50.856 238.034 52.168V61.336C238.034 62.232 238.178 62.904 238.466 63.352C238.754 63.8 239.154 64.104 239.666 64.264C240.178 64.392 240.786 64.456 241.49 64.456H241.634V67H226.898Z" fill="#FFFAEE"/>
</svg>
